<svg width="30" height="50" viewBox="0 0 30 50" fill="none" xmlns="http://www.w3.org/2000/svg">
<path d="M28.0767 23.7218H27.0379C26.6131 19.8525 24.5263 16.476 21.5081 14.3249V1.46436C21.5081 0.655643 20.8525 0 20.0437 0H7.53487C6.72615 0 6.07051 0.655643 6.07051 1.46436V14.3249C2.677 16.7435 0.459961 20.7107 0.459961 25.1861C0.459961 29.6615 2.6771 33.6287 6.07051 36.0474V48.5356C6.07051 49.3444 6.72615 50 7.53487 50H20.0437C20.8525 50 21.5081 49.3444 21.5081 48.5356V36.0474C24.5263 33.8962 26.6131 30.5197 27.0379 26.6505H28.0767C28.8854 26.6505 29.5411 25.9948 29.5411 25.1861C29.5411 24.3774 28.8854 23.7218 28.0767 23.7218ZM8.99923 2.92872H18.5794V12.7476C17.092 12.1728 15.477 11.8568 13.7894 11.8568C12.1017 11.8568 10.4866 12.1728 8.99933 12.7476V2.92872H8.99923ZM18.5794 47.0713H8.99923V37.6247C10.4866 38.1994 12.1016 38.5155 13.7893 38.5155C15.4769 38.5155 17.092 38.1995 18.5793 37.6248V47.0713H18.5794ZM13.7894 35.5867C8.05443 35.5867 3.38868 30.921 3.38868 25.186C3.38868 19.451 8.05433 14.7854 13.7894 14.7854C19.5064 14.7854 24.1603 19.4221 24.1893 25.1324C24.1887 25.1504 24.1866 25.1679 24.1866 25.186C24.1866 25.2042 24.1887 25.2217 24.1893 25.2396C24.1603 30.95 19.5063 35.5867 13.7894 35.5867Z" fill="#767676"/>
<path d="M13.7659 17.5514H13.7601C12.9514 17.5545 12.2983 18.2125 12.3013 19.0213L12.3226 24.6344L9.36294 27.9851C8.82757 28.5912 8.88488 29.5166 9.49102 30.0521C9.76954 30.2981 10.1154 30.4189 10.4599 30.4189C10.8653 30.4189 11.2687 30.2517 11.558 29.9241L14.8867 26.1557C15.1244 25.8866 15.2548 25.5397 15.2536 25.1807L15.2301 19.0103C15.2271 18.2033 14.5721 17.5514 13.7659 17.5514Z" fill="green"/>
<path d="M13.7895 8.85845C14.6035 8.85845 15.2635 8.19851 15.2635 7.38443C15.2635 6.57034 14.6035 5.9104 13.7895 5.9104C12.9754 5.9104 12.3154 6.57034 12.3154 7.38443C12.3154 8.19851 12.9754 8.85845 13.7895 8.85845Z" fill="#767676"/>
</svg>
