<svg width="52" height="59" viewBox="0 0 52 59" fill="none" xmlns="http://www.w3.org/2000/svg">
<g clip-path="url(#clip0_70_64)" filter="url(#filter0_d_70_64)">
<path d="M38.3318 23.8153C33.8604 18.804 33.7766 18.2689 36.0904 14.4862C36.8909 13.1775 37.7188 11.8242 37.7188 10.2743C37.7188 7.78608 35.1104 5.1597 33.8125 4.00699V1.58067C33.8125 0.707744 33.113 0 32.25 0C31.387 0 30.6875 0.707744 30.6875 1.58067V3.32978C28.61 3.78205 27.0231 5.06436 26 6.15414C24.9769 5.06436 23.39 3.78205 21.3125 3.32978V1.58067C21.3125 0.707744 20.613 0 19.75 0C18.887 0 18.1875 0.707744 18.1875 1.58067V4.00699C16.8896 5.1597 14.2812 7.78618 14.2812 10.2743C14.2812 11.8242 15.1091 13.1775 15.9096 14.4862C18.2309 18.281 18.1279 18.8173 13.6682 23.8153C9.64062 28.3286 4.125 34.5098 4.125 45.0491C4.125 45.4683 4.28965 45.8703 4.58271 46.1667C5.0293 46.6187 9.425 50.5814 26 50.5814C42.575 50.5814 46.9707 46.6187 47.4173 46.1667C47.7104 45.8703 47.875 45.4682 47.875 45.0491C47.875 34.5098 42.3594 28.3286 38.3318 23.8153ZM20.2782 6.35646C22.9312 6.69611 24.6451 9.48213 24.6602 9.50693C25.2745 10.5428 26.7379 10.5217 27.3365 9.51237C27.3547 9.48243 29.0686 6.69611 31.7216 6.35646C33.1812 7.64787 34.5938 9.40547 34.5938 10.2743C34.5938 11.6226 32.3859 13.7735 31.6874 16.4982H20.3126C19.6201 13.7971 17.4062 11.6096 17.4062 10.2743C17.4062 9.40537 18.8194 7.64727 20.2782 6.35646ZM38.4674 46.3762C38.2025 38.7466 36.3105 33.5978 34.4554 29.5383C34.0934 28.7459 33.1644 28.4007 32.3814 28.7668C31.5981 29.1331 31.2566 30.0724 31.6188 30.8648C33.3719 34.7012 35.1605 39.5856 35.3561 46.8828C33.2082 47.1597 30.6338 47.3567 27.5625 47.4071V30.823C27.5625 29.9501 26.863 29.2424 26 29.2424C25.137 29.2424 24.4375 29.9501 24.4375 30.823V47.4072C21.3662 47.3569 18.7918 47.1599 16.6439 46.8829C16.8395 39.5857 18.6282 34.7013 20.3813 30.8649C20.7434 30.0725 20.4019 29.1332 19.6186 28.7669C18.8353 28.4006 17.9067 28.746 17.5446 29.5384C15.6896 33.5979 13.7976 38.7467 13.5326 46.3763C9.94141 45.654 8.06768 44.7378 7.26211 44.2482C7.67734 30.5578 18.7007 25.4743 20.3234 19.6596H31.6767C33.3001 25.4769 44.3228 30.5574 44.738 44.2482C43.9323 44.7378 42.0585 45.654 38.4674 46.3762Z" fill="#767676"/>
</g>
<defs>
<filter id="filter0_d_70_64" x="-3" y="0" width="58" height="58.5814" filterUnits="userSpaceOnUse" color-interpolation-filters="sRGB">
<feFlood flood-opacity="0" result="BackgroundImageFix"/>
<feColorMatrix in="SourceAlpha" type="matrix" values="0 0 0 0 0 0 0 0 0 0 0 0 0 0 0 0 0 0 127 0" result="hardAlpha"/>
<feOffset dy="4"/>
<feGaussianBlur stdDeviation="2"/>
<feComposite in2="hardAlpha" operator="out"/>
<feColorMatrix type="matrix" values="0 0 0 0 0 0 0 0 0 0 0 0 0 0 0 0 0 0 0.25 0"/>
<feBlend mode="normal" in2="BackgroundImageFix" result="effect1_dropShadow_70_64"/>
<feBlend mode="normal" in="SourceGraphic" in2="effect1_dropShadow_70_64" result="shape"/>
</filter>
<clipPath id="clip0_70_64">
<rect width="50" height="50.5814" fill="white" transform="translate(1)"/>
</clipPath>
</defs>
</svg>
